:SAMPLES-PER-SECOND 30
:FULLY-SPECIFIED
:DEGREES
141
root  60.1875 19.7487 0.424515 -44.5641 85.1013 -94.0825
RightUpLeg  -56.6978 -2.49951 5.45816
RightLeg  120.982 6.83361 7.73023
RightFoot  -23.1738 -0.57243 -6.5906
RightToes  1.74622e-010 -3.18055e-015 8.94531e-016
Spine  52.5142 0.84252 1.75576
Spine1  -23.755 1.83307 6.01218
HEad  -57.0578 4.12519 1.94381
LeftShoulder1  0 -2.69403e-036 -1.28585e-037
LeftArm  13.1551 -59.0129 -94.3981
LeftForeArm  8.66225 1.6516 5.93457
LeftHand  -1.89503 0.586136 30.4338
RightShoulder  -2.48481e-017 0 -8.08114e-019
RightArm  -3.17808 17.0289 90.3499
RightForeArm  26.9807 3.88633 4.71508
RightHand  9.98549 -22.1665 -49.1313
LeftUpLeg  -38.7309 -12.6693 1.88822
LeftLeg  93.114 -11.978 -15.5644
LeftFoot  6.89414 -0.394707 2.32055
LeftToes  4.94765e-010 2.02697e-011 4.00889e-011
142
root  60.8259 19.6879 0.211299 -80.9929 85.5119 -127.925
RightUpLeg  -62.3195 -4.73321 5.96276
RightLeg  127.549 5.99785 7.35792
RightFoot  -25.8147 -0.755009 -6.85837
RightToes  1.74622e-010 -3.18055e-015 8.94531e-016
Spine  53.6312 -0.0192651 3.06394
Spine1  -22.1715 1.58284 8.71
HEad  -56.6921 4.38093 0.646821
LeftShoulder1  0 -2.69403e-036 -1.28585e-037
LeftArm  11.9761 -57.8665 -96.0435
LeftForeArm  8.67052 1.64355 5.90815
LeftHand  -2.16477 0.362231 32.8133
RightShoulder  -2.48481e-017 0 -8.08114e-019
RightArm  0.613542 16.0229 88.6884
RightForeArm  25.122 4.64111 4.84076
RightHand  10.067 -22.2693 -49.2309
LeftUpLeg  -34.0832 -15.7962 1.63562
LeftLeg  91.0092 -12.4732 -14.9873
LeftFoot  6.93127 -0.321953 1.91116
LeftToes  4.94765e-010 2.02697e-011 4.00889e-011
143
root  61.5106 19.616 0.0651244 -114.113 84.0897 -158.319
RightUpLeg  -67.4261 -7.14015 6.61112
RightLeg  131.471 6.77084 5.72726
RightFoot  -28.1377 -0.805451 -6.17691
RightToes  1.74622e-010 -3.18055e-015 8.94531e-016
Spine  55.0924 -1.08936 4.74335
Spine1  -21.658 1.39968 10.4472
HEad  -55.8328 3.79723 -0.0678679
LeftShoulder1  0 -2.69403e-036 -1.28585e-037
LeftArm  12.6509 -55.6174 -99.2593
LeftForeArm  9.11237 1.65273 5.96415
LeftHand  -2.40519 0.211706 35.076
RightShoulder  -2.48481e-017 0 -8.08114e-019
RightArm  8.91319 14.1851 86.2827
RightForeArm  18.7503 7.39495 4.57444
RightHand  9.86515 -22.1318 -48.5986
LeftUpLeg  -29.0665 -18.8631 1.36795
LeftLeg  88.7174 -12.9566 -14.1828
LeftFoot  7.16594 -0.356469 2.08305
LeftToes  4.94765e-010 2.02697e-011 4.00889e-011
144
root  62.2584 19.5427 -0.0174696 -130.508 81.7445 -172.106
RightUpLeg  -71.6317 -9.08467 7.46038
RightLeg  132.257 9.13044 3.12563
RightFoot  -28.2929 -0.780228 -5.9245
RightToes  1.74622e-010 -3.18055e-015 8.94531e-016
Spine  56.1629 -1.90775 6.13533
Spine1  -20.7802 1.31089 12.5726
HEad  -55.4811 2.83895 -0.914399
LeftShoulder1  0 -2.69403e-036 -1.28585e-037
LeftArm  12.8616 -53.3996 -101.612
LeftForeArm  10.149 1.62184 5.92253
LeftHand  -2.61113 -0.0199851 36.2858
RightShoulder  -2.48481e-017 0 -8.08114e-019
RightArm  19.8866 11.4845 83.6448
RightForeArm  9.83271 12.4626 1.20624
RightHand  9.33435 -21.6934 -47.1126
LeftUpLeg  -24.0195 -21.539 1.18389
LeftLeg  86.2476 -13.4015 -13.2394
LeftFoot  7.37258 -0.4485 2.56731
LeftToes  4.94765e-010 2.02697e-011 4.00889e-011
145
root  63.0378 19.4105 -0.0244847 -139.487 79.551 -179.24
RightUpLeg  -74.1516 -10.2482 7.79593
RightLeg  131.6 11.0806 1.07805
RightFoot  -24.861 -0.599233 -5.90471
RightToes  1.74622e-010 -3.18055e-015 8.94531e-016
Spine  56.1594 -2.53912 6.76568
Spine1  -19.477 0.886482 14.7544
HEad  -55.4509 2.13941 -1.45778
LeftShoulder1  0 -2.69403e-036 -1.28585e-037
LeftArm  12.1013 -51.2293 -102.785
LeftForeArm  11.4492 1.5524 5.77174
LeftHand  -2.80146 -0.231258 37.3468
RightShoulder  -2.48481e-017 0 -8.08114e-019
RightArm  31.7755 7.54463 81.4292
RightForeArm  -2.39086 17.8603 -7.96743
RightHand  8.61044 -21.0291 -45.1199
LeftUpLeg  -19.7186 -23.6675 0.935968
LeftLeg  83.7366 -13.7491 -12.0495
LeftFoot  7.62784 -0.541702 3.04165
LeftToes  4.94765e-010 2.02697e-011 4.00889e-011
146
root  63.809 19.1809 0.0375473 -144.837 77.9518 176.02
RightUpLeg  -75.2002 -10.5559 7.29543
RightLeg  131.883 11.0857 1.07477
RightFoot  -18.1993 -0.261077 -6.02231
RightToes  1.74622e-010 -3.18055e-015 8.94531e-016
Spine  55.1452 -3.22605 6.53025
Spine1  -18.6441 -0.0836491 16.2272
HEad  -54.9088 2.2991 -1.21918
LeftShoulder1  0 -2.69403e-036 -1.28585e-037
LeftArm  10.2156 -48.9121 -102.335
LeftForeArm  12.7786 1.35706 5.20648
LeftHand  -2.95781 -0.288858 38.8566
RightShoulder  -2.48481e-017 0 -8.08114e-019
RightArm  40.9702 3.20638 80.5992
RightForeArm  -14.5734 19.9709 -20.5429
RightHand  7.87075 -20.2895 -43.0428
LeftUpLeg  -16.67 -24.9018 0.774986
LeftLeg  81.2387 -13.9817 -10.7428
LeftFoot  8.01217 -0.642107 3.52278
LeftToes  4.94765e-010 2.02697e-011 4.00889e-011
147
root  64.5718 18.8848 0.143338 -146.234 77.084 174.361
RightUpLeg  -74.9099 -9.91343 6.66343
RightLeg  132.937 9.56362 2.6387
RightFoot  -11.7712 0.0745002 -5.9646
RightToes  1.74622e-010 -3.18055e-015 8.94531e-016
Spine  53.6962 -3.66973 6.09245
Spine1  -18.4286 -0.817825 16.5994
HEad  -53.8249 2.4394 -0.548212
LeftShoulder1  0 -2.69403e-036 -1.28585e-037
LeftArm  8.08754 -46.4666 -101.622
LeftForeArm  14.5421 1.1229 4.54632
LeftHand  -3.08251 -0.299826 40.243
RightShoulder  -2.48481e-017 0 -8.08114e-019
RightArm  31.9634 1.3285 79.5016
RightForeArm  -8.40736 24.2746 -24.9616
RightHand  7.30567 -19.7184 -41.2834
LeftUpLeg  -14.4619 -25.1215 1.13898
LeftLeg  78.6578 -14.1798 -9.73435
LeftFoot  8.12884 -0.718377 3.90599
LeftToes  4.94765e-010 2.02697e-011 4.00889e-011
148
root  65.3715 18.6224 0.269416 -143.105 76.5314 176.943
RightUpLeg  -73.0298 -8.36097 7.13371
RightLeg  132.847 8.47661 3.76107
RightFoot  -9.15183 0.184224 -5.2179
RightToes  1.74622e-010 -3.18055e-015 8.94531e-016
Spine  52.3289 -3.62544 6.46809
Spine1  -18.3844 -0.654039 16.4345
HEad  -53.0125 1.53272 -0.22762
LeftShoulder1  0 -2.69403e-036 -1.28585e-037
LeftArm  6.14761 -43.9178 -102.14
LeftForeArm  17.1251 1.00431 4.34387
LeftHand  -3.21154 -0.389702 41.1736
RightShoulder  -2.48481e-017 0 -8.08114e-019
RightArm  26.7318 2.71219 77.3203
RightForeArm  -5.37714 28.1685 -27.8358
RightHand  7.02164 -19.4505 -40.2595
LeftUpLeg  -12.5697 -24.9949 2.4062
LeftLeg  75.7284 -14.4455 -9.17441
LeftFoot  8.14319 -0.722866 3.92713
LeftToes  4.94765e-010 2.02697e-011 4.00889e-011
